<svg id="logo-blazemeter-icon-reg" xmlns="http://www.w3.org/2000/svg" viewBox="0 0 117.69 131.87">
    <g>
      <path d="M20.46,85.44l12.69,7.33,18.4-31.86,12.69,7.33-18.4,31.86,12.69,7.33,18.4-31.86,12.69,7.33-18.4,31.86,12.69,7.33,33.79-58.52V13.38c0-6.95-4.66-10.39-6.67-11.55-2-1.16-7.31-3.47-13.33,0l-43.45,25.08-33.79,58.52ZM87.95,56.45c2.02-3.5,6.5-4.7,10.01-2.68,3.5,2.02,4.7,6.5,2.68,10.01l-3.66,6.35-12.69-7.33,3.66-6.35ZM72.58,39.11c3.5,2.02,4.7,6.5,2.68,10.01l-3.66,6.35-12.69-7.33,3.66-6.35c2.02-3.5,6.5-4.7,10.01-2.68Z" fill="#4c00ff"/>
      <path d="M96.59,129.4l1.1.64c6.02,3.47,11.33,1.16,13.33,0,2-1.16,6.67-4.6,6.67-11.55v-25.64l-21.1,36.54Z" fill="#4c00ff"/>
      <path d="M6.67,77.48l1.1.64,21.1-36.54-22.2,12.82c-6.02,3.47-6.67,9.23-6.67,11.55s.65,8.07,6.67,11.55Z" fill="#4c00ff"/>
    </g>
</svg>